<svg xmlns="http://www.w3.org/2000/svg" width="100" height="100" viewBox="0 0 100 100">
  <defs>
    <linearGradient id="fire1" x1="0%" y1="0%" x2="100%" y2="100%">
      <stop offset="0%" stop-color="red"/>
      <stop offset="100%" stop-color="orange"/>
    </linearGradient>
    <symbol id="b" viewBox="0 0 432 640">
      <g transform="matrix(.85 0 0 .85 -31.35 48)"/>
      <path d="M165.214 571.337c4.185 2.224 8.599-2.593 6.037-6.58-13.906-21.644-27.075-58.063-6.094-104.967 34.987-78.216 56.277-118.726 56.277-118.726s11.324 47.275 42.02 89.31c29.544 40.454 45.714 91.334 19.645 133.72-2.447 3.978 1.867 8.671 6.025 6.544 32.27-16.508 68.464-49.62 72.548-115.512 1.505-20.135-.753-48.324-12.044-83.896-14.52-45.084-32.368-66.121-42.695-75.155-3.089-2.703-7.893-.308-7.64 3.789 3.01 48.646-15.291 60.99-25.708 33.17-4.16-11.112-6.586-30.33-6.586-53.736 0-38.966-11.305-79.077-36.229-111.672-6.48-8.476-14.065-16.397-22.766-23.15-3.15-2.447-7.716.012-7.427 3.99 1.913 26.414.18 102.119-66.237 192.561-60.22 83.896-36.885 148.328-28.605 165.779 15.831 33.43 37.913 53.064 59.479 64.53z" fill="#ff0" fill-rule="evenodd" stroke="#000" stroke-width="2.1"/>
    </symbol>
  </defs>
  <rect x="10" y="10" width="80" height="80" fill="url(#fire1)" stroke="#000" stroke-width="4" rx="4" ry="4"/>
  <svg x="10" y="5" width="80" height="80" viewBox="0 0 432 640">
    <use href="#b"/>
  </svg>
</svg>
