<svg xmlns="http://www.w3.org/2000/svg" width="100" height="100" viewBox="0 0 100 100"><defs><linearGradient id="ice1" x1="0%" y1="0%" x2="100%" y2="100%"><stop offset="0%" stop-color="#007acc"/><stop offset="100%" stop-color="#a0e1ff"/></linearGradient><marker id="ice1" markerUnits="strokeWidth" markerWidth="4" markerHeight="4" refX="2" refY="2" orient="auto"><path d="M2 0v4" stroke="#fff"/></marker></defs><rect x="10" y="10" width="80" height="80" fill="url(#ice1)" stroke="#000" stroke-width="4" rx="4" ry="4"/><g stroke="#fff" stroke-width="2" stroke-linecap="round" marker-end="url(#ice1)"><path d="M50 20v60"/><path d="M20 50h60"/><path d="m30 30 40 40"/><path d="m30 70 40-40"/><path d="m50 30-5-5"/><path d="m50 30 5-5"/><path d="m50 70-5 5"/><path d="m50 70 5 5"/><path d="m70 50 5-5"/><path d="m70 50 5 5"/><path d="m30 50-5-5"/><path d="m30 50-5 5"/><path d="m60 60 5 5"/><path d="m60 60-5 5"/><path d="m40 40-5-5"/><path d="m40 40 5-5"/><path d="m60 40 5-5"/><path d="m60 40 5 5"/><path d="m40 60-5-5"/><path d="m40 60-5 5"/></g></svg>