<svg xmlns="http://www.w3.org/2000/svg" width="1920" height="1080" viewBox="0 0 1920 1080"><defs><radialGradient id="a" cx="60%" cy="35%" r="90%"><stop offset="0%" stop-color="#120027"/><stop offset="60%" stop-color="#4420a7"/><stop offset="100%" stop-color="#be42ff"/></radialGradient><radialGradient id="c" cx="60%" cy="0%" r="120%"><stop offset="0%" stop-color="#ff34f7" stop-opacity=".3"/><stop offset="100%" stop-color="#7b00e0" stop-opacity="0"/></radialGradient><linearGradient id="b" x1="0" y1="0" x2="0" y2="1"><stop offset="0%" stop-color="#5b2eff"/><stop offset="100%" stop-color="#21102e"/></linearGradient><linearGradient id="d" x1="0" y1="0" x2="0" y2="1"><stop offset="0%" stop-color="#222647"/><stop offset="100%" stop-color="#1b1a30"/></linearGradient></defs><rect width="100%" height="100%" fill="url(#a)"/><path d="M0 600h100v350H0zm120 50h80v300h-80zm100 50h70v250h-70zm1480-50h100v350h-100zm-100 50h80v300h-80zm-100 50h70v250h-70z" opacity=".6" fill="url(#b)"/><rect x="800" y="400" width="60" height="550" rx="10" fill="url(#b)"/><rect x="900" y="300" width="80" height="650" rx="15" fill="url(#b)"/><rect x="1040" y="450" width="50" height="500" rx="8" fill="url(#b)"/><rect x="700" y="600" width="40" height="350" rx="5" fill="#21102e"/><rect x="1170" y="550" width="30" height="400" rx="5" fill="#21102e"/><ellipse cx="940" cy="600" rx="100" ry="30" fill="url(#c)" opacity=".2"/><rect y="900" width="100%" height="180" fill="url(#d)"/><path d="M0 980q400-30 800-10t800 0l320-20v130H0Z" fill="#302158" opacity=".8"/></svg>