<svg class="ico" viewBox="0 0 64 64" fill="none" xmlns="http://www.w3.org/2000/svg">
  <path d="m32 12 20 20-20 20-20-20Z" fill="url(#dia1)"/>
  <path d="m32 16 16 16-16 16-16-16Z" fill="url(#dia1)"/>
  <path d="m32 16 16 16H32Z" fill="url(#dia2)" opacity=".85"/>
  <path d="M32 16v16H16Z" fill="url(#dia3)" opacity=".8"/>
  <path d="m32 48 16-16H32Z" fill="url(#dia4)" opacity=".6"/>
  <path d="M32 48V32H16Z" fill="url(#dia5)" opacity=".6"/>
  <path d="m32 12 20 20-20 20-20-20Z" stroke="#B3E5FF" stroke-width="1.5"/>
  <circle cx="40" cy="24" r="1.5" fill="#fff" opacity=".7"/>
  <circle cx="24" cy="40" r="1.5" fill="#fff" opacity=".5"/>
  <defs>
    <linearGradient id="dia1" x1="16" y1="16" x2="48" y2="48">
      <stop offset="0%" stop-color="#40C4FF"/>
      <stop offset="100%" stop-color="#01579B"/>
    </linearGradient>
    <linearGradient id="dia2" x1="32" y1="16" x2="48" y2="32">
      <stop offset="0%" stop-color="#80D8FF"/>
      <stop offset="100%" stop-color="#40C4FF"/>
    </linearGradient>
    <linearGradient id="dia3" x1="16" y1="32" x2="32" y2="16">
      <stop offset="0%" stop-color="#0091EA"/>
      <stop offset="100%" stop-color="#40C4FF"/>
    </linearGradient>
    <linearGradient id="dia4" x1="32" y1="48" x2="48" y2="32">
      <stop offset="0%" stop-color="#0288D1"/>
      <stop offset="100%" stop-color="#40C4FF"/>
    </linearGradient>
    <linearGradient id="dia5" x1="16" y1="32" x2="32" y2="48">
      <stop offset="0%" stop-color="#01579B"/>
      <stop offset="100%" stop-color="#0288D1"/>
    </linearGradient>
  </defs>
</svg>
