<svg width="800" height="800" version="1.1" xmlns="http://www.w3.org/2000/svg" desc="Created with imagetracer.js version 1.2.6" ><path fill="rgb(0,0,0)" stroke="rgb(0,0,0)" stroke-width="1" opacity="0" d="M 0 0 L 800 0 L 800 800 L 0 800 L 0 0 Z M 377 55 L 358 59 L 343 64 L 339 67 L 320 74 L 304 85 Q 278 107 265 143 L 258 167 L 250 238 L 243 274 L 236 301 L 219 345 Q 207 371 191 395 L 169 441 L 159 469 L 152 495 L 148 517 L 147 536 L 146 537 L 147 575 L 148 576 L 150 593 L 156 615 Q 170 652 194 679 Q 226 713 273 732 L 297 740 L 319 745 L 344 747 L 345 748 L 364 748 L 365 749 L 410 749 L 411 748 L 445 747 L 446 746 L 455 746 L 456 745 L 464 745 L 472 743 L 485 742 L 526 733 Q 584 717 624 682 Q 651 657 667 621 L 674 600 L 678 582 L 679 568 L 680 567 L 680 550 L 681 549 L 680 525 L 679 524 L 677 506 L 672 486 L 663 461 L 640 417 L 631 403 Q 617 389 606 372 L 589 342 L 571 299 L 542 217 L 535 192 L 531 164 L 524 141 Q 514 116 497 99 Q 475 75 442 63 L 419 57 L 405 56 L 404 55 L 377 55 Z " /><path fill="rgb(254,254,254)" stroke="rgb(254,254,254)" stroke-width="1" opacity="1" d="M 412.5 90 Q 431.3 91.7 443 100.5 Q 452.3 111.2 458 125.5 L 467 154.5 L 470 171.5 L 470 178.5 L 471 179.5 L 471 187.5 L 472 188.5 L 474 219.5 L 475 220.5 L 475 226.5 L 476 227.5 L 476 233.5 L 477 234.5 L 477 240.5 L 481 258.5 L 481 263.5 L 489 298.5 L 499 329.5 L 514 365.5 L 531 399.5 L 562 455.5 L 576 491.5 L 580 505.5 L 585 534.5 L 585 569.5 L 584 570.5 L 583 585.5 L 577 610.5 Q 571 629 562 644.5 Q 546.8 670.3 524.5 689 L 501.5 705 L 482.5 709 L 482.5 708 Q 499.6 696.1 513 680.5 Q 536.6 653.6 549 615.5 L 554 596.5 L 556 579.5 L 557 578.5 L 557 569.5 L 558 568.5 L 558 534.5 L 551 496.5 L 539 461.5 L 523 427.5 Q 502.7 395.3 486 359.5 L 465 306.5 L 458 280.5 L 450 240.5 L 448 219.5 L 447 218.5 L 447 210.5 L 446 209.5 L 446 200.5 L 445 199.5 L 444 178.5 L 443 177.5 L 443 170.5 L 439 148.5 L 429 117.5 Q 422.2 101.4 412.5 90 Z " /><path fill="rgb(254,254,254)" stroke="rgb(254,254,254)" stroke-width="1" opacity="1" d="M 350.5 97 L 364.5 97 L 366 98.5 Q 354.3 108.3 346 121.5 Q 336 137.5 330 157.5 L 324 187.5 L 323 208.5 L 322 209.5 L 322 218.5 L 321 219.5 L 319 239.5 L 307 296.5 Q 298.7 326.7 286 352.5 Q 273.4 378.9 258 402.5 Q 243.2 429.2 232 459.5 L 224 484.5 L 217 518.5 L 216 537.5 L 215 538.5 L 215 562.5 L 216 563.5 L 216 573.5 L 219 590.5 L 229 621.5 Q 245 657 272.5 681 Q 292 699 318 710.5 L 315.5 711 Q 254.1 696.4 218 656.5 Q 196.1 632.9 185 598.5 L 181 582.5 L 180 568.5 L 179 567.5 L 179 532.5 L 180 531.5 L 181 516.5 L 184 501.5 L 196 461.5 Q 206.4 433.9 220 409.5 L 229 395.5 L 249 357.5 L 267 311.5 L 275 280.5 L 281 250.5 L 284 224.5 L 285 223.5 L 285 216.5 L 286 215.5 L 288 185.5 L 292 165.5 L 297 150.5 Q 306.6 125.1 325.5 109 Q 335.3 100.3 350.5 97 Z " /><path fill="rgb(254,254,254)" stroke="rgb(254,254,254)" stroke-width="1" opacity="1" d="M 333.5 458 L 354.5 458 L 374 463.5 Q 348.2 473.2 332 492.5 Q 318.4 507.9 312 530.5 L 309 546.5 L 309 564.5 L 310 565.5 L 311 576.5 L 316 592.5 Q 321.2 606.7 331 616.5 L 327.5 617 Q 302.4 610.6 287 594.5 Q 275.5 583 269 566.5 L 265 551.5 L 264 532.5 L 265 531.5 L 266 519.5 L 270 507.5 Q 276.8 491.3 288.5 480 Q 299.5 469.5 314.5 463 L 333.5 458 Z " /><path fill="rgb(85,167,33)" stroke="rgb(85,167,33)" stroke-width="1" opacity="1" d="M 354.5 96 L 364 96.5 L 354.5 97 L 354.5 96 Z " /><path fill="rgb(85,167,33)" stroke="rgb(85,167,33)" stroke-width="1" opacity="1" d="M 442.5 98 Q 460.1 106.4 473 119.5 Q 488.8 135.7 497 159.5 L 500 171.5 L 501 184.5 L 504 199.5 L 510 221.5 Q 530.3 285.2 555 344.5 L 575 382.5 Q 590.4 406.6 609 427.5 L 632 469.5 L 644 504.5 L 648 526.5 L 648 541.5 L 649 544.5 L 648 545.5 L 648 562.5 L 647 563.5 L 646 577.5 L 637 608.5 Q 631 623.5 622 635.5 L 605 656 L 587.5 670 L 560.5 686 Q 535.1 698.6 503.5 705 L 503.5 704 Q 527.1 690.6 544 670.5 Q 567.8 644.3 579 605.5 L 585 575.5 L 586 540.5 L 585 539.5 L 585 529.5 L 581 507.5 L 568 467.5 L 554 437.5 L 520 376.5 Q 503.7 343.8 492 306.5 L 483 270.5 L 480 249.5 L 478 243.5 L 476 222.5 L 475 221.5 L 475 213.5 L 474 212.5 L 473 193.5 L 472 192.5 L 472 181.5 L 471 180.5 L 471 173.5 L 467 151.5 L 457 121.5 L 450 108.5 L 442.5 98 Z " /><path fill="rgb(85,167,33)" stroke="rgb(85,167,33)" stroke-width="1" opacity="1" d="M 372.5 99 L 375 100.5 L 373.5 100 L 372.5 99 Z " /><path fill="rgb(85,167,33)" stroke="rgb(85,167,33)" stroke-width="1" opacity="1" d="M 394.5 121 L 399 129.5 L 398 129.5 L 394.5 121 Z " /><path fill="rgb(85,167,33)" stroke="rgb(85,167,33)" stroke-width="1" opacity="1" d="M 408.5 161 L 409 163.5 L 408 163.5 L 408.5 161 Z " /><path fill="rgb(85,167,33)" stroke="rgb(85,167,33)" stroke-width="1" opacity="1" d="M 409.5 167 L 410 169.5 L 409 169.5 L 409.5 167 Z " /><path fill="rgb(85,167,33)" stroke="rgb(85,167,33)" stroke-width="1" opacity="1" d="M 410.5 173 L 411 176.5 L 410 176.5 L 410.5 173 Z " /><path fill="rgb(85,167,33)" stroke="rgb(85,167,33)" stroke-width="1" opacity="1" d="M 442.5 173 L 443 175.5 L 442 175.5 L 442.5 173 Z " /><path fill="rgb(85,167,33)" stroke="rgb(85,167,33)" stroke-width="1" opacity="1" d="M 411.5 181 L 412 184.5 L 411 184.5 L 411.5 181 Z " /><path fill="rgb(85,167,33)" stroke="rgb(85,167,33)" stroke-width="1" opacity="1" d="M 443.5 181 L 444 185.5 L 443 185.5 L 443.5 181 Z " /><path fill="rgb(85,167,33)" stroke="rgb(85,167,33)" stroke-width="1" opacity="1" d="M 287.5 187 L 288 189.5 L 287 189.5 L 287.5 187 Z " /><path fill="rgb(85,167,33)" stroke="rgb(85,167,33)" stroke-width="1" opacity="1" d="M 412.5 191 L 413 196.5 L 412 196.5 L 412.5 191 Z " /><path fill="rgb(85,167,33)" stroke="rgb(85,167,33)" stroke-width="1" opacity="1" d="M 444.5 193 L 445 196.5 L 444 196.5 L 444.5 193 Z " /><path fill="rgb(85,167,33)" stroke="rgb(85,167,33)" stroke-width="1" opacity="1" d="M 286.5 197 L 287 200.5 L 286 200.5 L 286.5 197 Z " /><path fill="rgb(85,167,33)" stroke="rgb(85,167,33)" stroke-width="1" opacity="1" d="M 413.5 202 L 414 206.5 L 413 206.5 L 413.5 202 Z " /><path fill="rgb(85,167,33)" stroke="rgb(85,167,33)" stroke-width="1" opacity="1" d="M 445.5 203 L 446 206.5 L 445 206.5 L 445.5 203 Z " /><path fill="rgb(85,167,33)" stroke="rgb(85,167,33)" stroke-width="1" opacity="1" d="M 285.5 208 L 286 210.5 L 285 210.5 L 285.5 208 Z " /><path fill="rgb(85,167,33)" stroke="rgb(85,167,33)" stroke-width="1" opacity="1" d="M 414.5 213 L 415 217.5 L 414 217.5 L 414.5 213 Z " /><path fill="rgb(85,167,33)" stroke="rgb(85,167,33)" stroke-width="1" opacity="1" d="M 446.5 214 L 447 216.5 L 446 216.5 L 446.5 214 Z " /><path fill="rgb(85,167,33)" stroke="rgb(85,167,33)" stroke-width="1" opacity="1" d="M 284.5 218 L 285 220.5 L 284 220.5 L 284.5 218 Z " /><path fill="rgb(85,167,33)" stroke="rgb(85,167,33)" stroke-width="1" opacity="1" d="M 415.5 222 L 416 225.5 L 415 225.5 L 415.5 222 Z " /><path fill="rgb(85,167,33)" stroke="rgb(85,167,33)" stroke-width="1" opacity="1" d="M 447.5 222 L 448 224.5 L 447 224.5 L 447.5 222 Z " /><path fill="rgb(85,167,33)" stroke="rgb(85,167,33)" stroke-width="1" opacity="1" d="M 416.5 229 L 417 232.5 L 416 232.5 L 416.5 229 Z " /><path fill="rgb(85,167,33)" stroke="rgb(85,167,33)" stroke-width="1" opacity="1" d="M 448.5 229 L 449 231.5 L 448 231.5 L 448.5 229 Z " /><path fill="rgb(85,167,33)" stroke="rgb(85,167,33)" stroke-width="1" opacity="1" d="M 282.5 233 L 283 235.5 L 282 235.5 L 282.5 233 Z " /><path fill="rgb(85,167,33)" stroke="rgb(85,167,33)" stroke-width="1" opacity="1" d="M 449.5 236 L 450 238.5 L 449 238.5 L 449.5 236 Z " /><path fill="rgb(85,167,33)" stroke="rgb(85,167,33)" stroke-width="1" opacity="1" d="M 417.5 237 L 418 239.5 L 417 239.5 L 417.5 237 Z " /><path fill="rgb(85,167,33)" stroke="rgb(85,167,33)" stroke-width="1" opacity="1" d="M 281.5 240 L 282 242.5 L 281 242.5 L 281.5 240 Z " /><path fill="rgb(85,167,33)" stroke="rgb(85,167,33)" stroke-width="1" opacity="1" d="M 418.5 244 L 419 246.5 L 418 246.5 L 418.5 244 Z " /><path fill="rgb(85,167,33)" stroke="rgb(85,167,33)" stroke-width="1" opacity="1" d="M 420.5 255 L 421 257.5 L 420 257.5 L 420.5 255 Z " /><path fill="rgb(85,167,33)" stroke="rgb(85,167,33)" stroke-width="1" opacity="1" d="M 422.5 266 L 423 268.5 L 422 268.5 L 422.5 266 Z " /><path fill="rgb(85,167,33)" stroke="rgb(85,167,33)" stroke-width="1" opacity="1" d="M 423.5 271 L 424 273.5 L 423 273.5 L 423.5 271 Z " /><path fill="rgb(85,167,33)" stroke="rgb(85,167,33)" stroke-width="1" opacity="1" d="M 428.5 293 L 429 295.5 L 428 295.5 L 428.5 293 Z " /><path fill="rgb(85,167,33)" stroke="rgb(85,167,33)" stroke-width="1" opacity="1" d="M 472.5 404 L 475 407.5 L 473 406.5 L 472.5 404 Z " /><path fill="rgb(85,167,33)" stroke="rgb(85,167,33)" stroke-width="1" opacity="1" d="M 478.5 415 L 481 418.5 L 479 417.5 L 478.5 415 Z " /><path fill="rgb(85,167,33)" stroke="rgb(85,167,33)" stroke-width="1" opacity="1" d="M 336.5 425 L 353 425.5 L 336.5 426 L 336.5 425 Z " /><path fill="rgb(85,167,33)" stroke="rgb(85,167,33)" stroke-width="1" opacity="1" d="M 327.5 426 L 331 426.5 L 327.5 427 L 327.5 426 Z " /><path fill="rgb(85,167,33)" stroke="rgb(85,167,33)" stroke-width="1" opacity="1" d="M 359.5 426 L 362 426.5 L 359.5 427 L 359.5 426 Z " /><path fill="rgb(85,167,33)" stroke="rgb(85,167,33)" stroke-width="1" opacity="1" d="M 321.5 427 L 324 427.5 L 321.5 428 L 321.5 427 Z " /><path fill="rgb(85,167,33)" stroke="rgb(85,167,33)" stroke-width="1" opacity="1" d="M 365.5 427 L 368 427.5 L 365.5 428 L 365.5 427 Z " /><path fill="rgb(85,167,33)" stroke="rgb(85,167,33)" stroke-width="1" opacity="1" d="M 336.5 457 L 341 457.5 L 336.5 458 L 336.5 457 Z " /><path fill="rgb(85,167,33)" stroke="rgb(85,167,33)" stroke-width="1" opacity="1" d="M 349.5 457 L 354 457.5 L 349.5 458 L 349.5 457 Z " /><path fill="rgb(85,167,33)" stroke="rgb(85,167,33)" stroke-width="1" opacity="1" d="M 235.5 508 L 236 510.5 L 235 510.5 L 235.5 508 Z " /><path fill="rgb(85,167,33)" stroke="rgb(85,167,33)" stroke-width="1" opacity="1" d="M 233.5 517 L 234 519.5 L 233 519.5 L 233.5 517 Z " /><path fill="rgb(85,167,33)" stroke="rgb(85,167,33)" stroke-width="1" opacity="1" d="M 455.5 517 L 456 519.5 L 455 519.5 L 455.5 517 Z " /><path fill="rgb(85,167,33)" stroke="rgb(85,167,33)" stroke-width="1" opacity="1" d="M 555.5 521 L 556 523.5 L 555 523.5 L 555.5 521 Z " /><path fill="rgb(85,167,33)" stroke="rgb(85,167,33)" stroke-width="1" opacity="1" d="M 523.5 522 L 524 524.5 L 523 524.5 L 523.5 522 Z " /><path fill="rgb(85,167,33)" stroke="rgb(85,167,33)" stroke-width="1" opacity="1" d="M 232.5 523 L 233 527.5 L 232 527.5 L 232.5 523 Z " /><path fill="rgb(85,167,33)" stroke="rgb(85,167,33)" stroke-width="1" opacity="1" d="M 456.5 524 L 457 526.5 L 456 526.5 L 456.5 524 Z " /><path fill="rgb(85,167,33)" stroke="rgb(85,167,33)" stroke-width="1" opacity="1" d="M 179.5 526 L 180 528.5 L 179 528.5 L 179.5 526 Z " /><path fill="rgb(85,167,33)" stroke="rgb(85,167,33)" stroke-width="1" opacity="1" d="M 524.5 529 L 525 532.5 L 524 532.5 L 524.5 529 Z " /><path fill="rgb(85,167,33)" stroke="rgb(85,167,33)" stroke-width="1" opacity="1" d="M 556.5 529 L 557 531.5 L 556 531.5 L 556.5 529 Z " /><path fill="rgb(85,167,33)" stroke="rgb(85,167,33)" stroke-width="1" opacity="1" d="M 178.5 534 L 179 542.5 L 178 542.5 L 178.5 534 Z " /><path fill="rgb(85,167,33)" stroke="rgb(85,167,33)" stroke-width="1" opacity="1" d="M 425.5 537 L 426 539.5 L 425 539.5 L 425.5 537 Z " /><path fill="rgb(85,167,33)" stroke="rgb(85,167,33)" stroke-width="1" opacity="1" d="M 525.5 537 L 526 547.5 L 525 547.5 L 525.5 537 Z " /><path fill="rgb(85,167,33)" stroke="rgb(85,167,33)" stroke-width="1" opacity="1" d="M 557.5 542 L 558 562.5 L 557 562.5 L 557.5 542 Z " /><path fill="rgb(85,167,33)" stroke="rgb(85,167,33)" stroke-width="1" opacity="1" d="M 232.5 547 L 233 551.5 L 232 551.5 L 232.5 547 Z " /><path fill="rgb(85,167,33)" stroke="rgb(85,167,33)" stroke-width="1" opacity="1" d="M 264.5 547 L 265 549.5 L 264 549.5 L 264.5 547 Z " /><path fill="rgb(85,167,33)" stroke="rgb(85,167,33)" stroke-width="1" opacity="1" d="M 456.5 549 L 457 552.5 L 456 552.5 L 456.5 549 Z " /><path fill="rgb(85,167,33)" stroke="rgb(85,167,33)" stroke-width="1" opacity="1" d="M 525.5 552 L 526 563.5 L 525 563.5 L 525.5 552 Z " /><path fill="rgb(85,167,33)" stroke="rgb(85,167,33)" stroke-width="1" opacity="1" d="M 233.5 555 L 234 557.5 L 233 557.5 L 233.5 555 Z " /><path fill="rgb(85,167,33)" stroke="rgb(85,167,33)" stroke-width="1" opacity="1" d="M 455.5 556 L 456 558.5 L 455 558.5 L 455.5 556 Z " /><path fill="rgb(85,167,33)" stroke="rgb(85,167,33)" stroke-width="1" opacity="1" d="M 178.5 561 L 179 564.5 L 178 564.5 L 178.5 561 Z " /><path fill="rgb(85,167,33)" stroke="rgb(85,167,33)" stroke-width="1" opacity="1" d="M 524.5 570 L 525 573.5 L 524 573.5 L 524.5 570 Z " /><path fill="rgb(85,167,33)" stroke="rgb(85,167,33)" stroke-width="1" opacity="1" d="M 179.5 572 L 180 574.5 L 179 574.5 L 179.5 572 Z " /><path fill="rgb(85,167,33)" stroke="rgb(85,167,33)" stroke-width="1" opacity="1" d="M 556.5 572 L 557 574.5 L 556 574.5 L 556.5 572 Z " /><path fill="rgb(85,167,33)" stroke="rgb(85,167,33)" stroke-width="1" opacity="1" d="M 523.5 578 L 524 580.5 L 523 580.5 L 523.5 578 Z " /><path fill="rgb(85,167,33)" stroke="rgb(85,167,33)" stroke-width="1" opacity="1" d="M 522.5 585 L 523 587.5 L 522 587.5 L 522.5 585 Z " /><path fill="rgb(85,167,33)" stroke="rgb(85,167,33)" stroke-width="1" opacity="1" d="M 521.5 589 L 522 591.5 L 521 591.5 L 521.5 589 Z " /><path fill="rgb(85,167,33)" stroke="rgb(85,167,33)" stroke-width="1" opacity="1" d="M 350.5 618 L 353 618.5 L 350.5 619 L 350.5 618 Z " /><path fill="rgb(85,167,33)" stroke="rgb(85,167,33)" stroke-width="1" opacity="1" d="M 510.5 623 L 511 624.5 L 509.5 627 L 509 625.5 L 510.5 623 Z " /><path fill="rgb(85,167,33)" stroke="rgb(85,167,33)" stroke-width="1" opacity="1" d="M 321.5 648 L 324 648.5 L 321.5 649 L 321.5 648 Z " /><path fill="rgb(85,167,33)" stroke="rgb(85,167,33)" stroke-width="1" opacity="1" d="M 327.5 649 L 330 649.5 L 327.5 650 L 327.5 649 Z " /><path fill="rgb(85,167,33)" stroke="rgb(85,167,33)" stroke-width="1" opacity="1" d="M 359.5 649 L 362 649.5 L 359.5 650 L 359.5 649 Z " /><path fill="rgb(85,167,33)" stroke="rgb(85,167,33)" stroke-width="1" opacity="1" d="M 334.5 650 L 355 650.5 L 334.5 651 L 334.5 650 Z " /><path fill="rgb(85,167,33)" stroke="rgb(85,167,33)" stroke-width="1" opacity="1" d="M 481.5 708 L 482.5 710 L 480 709.5 L 481.5 708 Z " /><path fill="rgb(85,167,33)" stroke="rgb(85,167,33)" stroke-width="1" opacity="1" d="M 486.5 708 L 489 708.5 L 486.5 709 L 486.5 708 Z " /><path fill="rgb(85,167,33)" stroke="rgb(85,167,33)" stroke-width="1" opacity="1" d="M 321.5 712 L 324 712.5 L 321.5 713 L 321.5 712 Z " /><path fill="rgb(85,167,33)" stroke="rgb(85,167,33)" stroke-width="1" opacity="1" d="M 328.5 713 L 331 713.5 L 328.5 714 L 328.5 713 Z " /><path fill="rgb(85,167,33)" stroke="rgb(85,167,33)" stroke-width="1" opacity="1" d="M 384.5 713 L 388 713.5 L 384.5 714 L 384.5 713 Z " /><path fill="rgb(85,167,33)" stroke="rgb(85,167,33)" stroke-width="1" opacity="1" d="M 335.5 714 L 339 714.5 L 335.5 715 L 335.5 714 Z " /><path fill="rgb(85,167,33)" stroke="rgb(85,167,33)" stroke-width="1" opacity="1" d="M 376.5 714 L 380 714.5 L 376.5 715 L 376.5 714 Z " /><path fill="rgb(85,167,33)" stroke="rgb(85,167,33)" stroke-width="1" opacity="1" d="M 348.5 715 L 368 715.5 L 348.5 716 L 348.5 715 Z " /><path fill="rgb(199,208,179)" stroke="rgb(199,208,179)" stroke-width="1" opacity="1" d="M 470.5 173 L 471 175.5 L 470 175.5 L 470.5 173 Z " /><path fill="rgb(199,208,179)" stroke="rgb(199,208,179)" stroke-width="1" opacity="1" d="M 410.5 177 L 411 179.5 L 410 179.5 L 410.5 177 Z " /><path fill="rgb(199,208,179)" stroke="rgb(199,208,179)" stroke-width="1" opacity="1" d="M 471.5 181 L 472 184.5 L 471 184.5 L 471.5 181 Z " /><path fill="rgb(199,208,179)" stroke="rgb(199,208,179)" stroke-width="1" opacity="1" d="M 411.5 185 L 412 188.5 L 411 188.5 L 411.5 185 Z " /><path fill="rgb(199,208,179)" stroke="rgb(199,208,179)" stroke-width="1" opacity="1" d="M 287.5 190 L 288 192.5 L 287 192.5 L 287.5 190 Z " /><path fill="rgb(199,208,179)" stroke="rgb(199,208,179)" stroke-width="1" opacity="1" d="M 444.5 190 L 445 192.5 L 444 192.5 L 444.5 190 Z " /><path fill="rgb(199,208,179)" stroke="rgb(199,208,179)" stroke-width="1" opacity="1" d="M 472.5 193 L 473 195.5 L 472 195.5 L 472.5 193 Z " /><path fill="rgb(199,208,179)" stroke="rgb(199,208,179)" stroke-width="1" opacity="1" d="M 412.5 197 L 413 200.5 L 412 200.5 L 412.5 197 Z " /><path fill="rgb(199,208,179)" stroke="rgb(199,208,179)" stroke-width="1" opacity="1" d="M 473.5 203 L 474 205.5 L 473 205.5 L 473.5 203 Z " /><path fill="rgb(199,208,179)" stroke="rgb(199,208,179)" stroke-width="1" opacity="1" d="M 413.5 207 L 414 210.5 L 413 210.5 L 413.5 207 Z " /><path fill="rgb(199,208,179)" stroke="rgb(199,208,179)" stroke-width="1" opacity="1" d="M 285.5 211 L 286 213.5 L 285 213.5 L 285.5 211 Z " /><path fill="rgb(199,208,179)" stroke="rgb(199,208,179)" stroke-width="1" opacity="1" d="M 446.5 211 L 447 213.5 L 446 213.5 L 446.5 211 Z " /><path fill="rgb(199,208,179)" stroke="rgb(199,208,179)" stroke-width="1" opacity="1" d="M 474.5 213 L 475 216.5 L 474 216.5 L 474.5 213 Z " /><path fill="rgb(199,208,179)" stroke="rgb(199,208,179)" stroke-width="1" opacity="1" d="M 414.5 218 L 415 220.5 L 414 220.5 L 414.5 218 Z " /><path fill="rgb(199,208,179)" stroke="rgb(199,208,179)" stroke-width="1" opacity="1" d="M 417.5 240 L 418 242.5 L 417 242.5 L 417.5 240 Z " /><path fill="rgb(199,208,179)" stroke="rgb(199,208,179)" stroke-width="1" opacity="1" d="M 332.5 425 L 336 425.5 L 332.5 426 L 332.5 425 Z " /><path fill="rgb(199,208,179)" stroke="rgb(199,208,179)" stroke-width="1" opacity="1" d="M 353.5 425 L 357 425.5 L 353.5 426 L 353.5 425 Z " /><path fill="rgb(199,208,179)" stroke="rgb(199,208,179)" stroke-width="1" opacity="1" d="M 341.5 457 L 349 457.5 L 341.5 458 L 341.5 457 Z " /><path fill="rgb(199,208,179)" stroke="rgb(199,208,179)" stroke-width="1" opacity="1" d="M 523.5 525 L 524 527.5 L 523 527.5 L 523.5 525 Z " /><path fill="rgb(199,208,179)" stroke="rgb(199,208,179)" stroke-width="1" opacity="1" d="M 584.5 529 L 585 531.5 L 584 531.5 L 584.5 529 Z " /><path fill="rgb(199,208,179)" stroke="rgb(199,208,179)" stroke-width="1" opacity="1" d="M 457.5 532 L 458 536.5 L 457 536.5 L 457.5 532 Z " /><path fill="rgb(199,208,179)" stroke="rgb(199,208,179)" stroke-width="1" opacity="1" d="M 524.5 533 L 525 535.5 L 524 535.5 L 524.5 533 Z " /><path fill="rgb(199,208,179)" stroke="rgb(199,208,179)" stroke-width="1" opacity="1" d="M 231.5 534 L 232 542.5 L 231 542.5 L 231.5 534 Z " /><path fill="rgb(199,208,179)" stroke="rgb(199,208,179)" stroke-width="1" opacity="1" d="M 557.5 536 L 558 541.5 L 557 541.5 L 557.5 536 Z " /><path fill="rgb(199,208,179)" stroke="rgb(199,208,179)" stroke-width="1" opacity="1" d="M 457.5 539 L 458 543.5 L 457 543.5 L 457.5 539 Z " /><path fill="rgb(199,208,179)" stroke="rgb(199,208,179)" stroke-width="1" opacity="1" d="M 585.5 540 L 586 546.5 L 585 546.5 L 585.5 540 Z " /><path fill="rgb(199,208,179)" stroke="rgb(199,208,179)" stroke-width="1" opacity="1" d="M 178.5 543 L 179 548.5 L 178 548.5 L 178.5 543 Z " /><path fill="rgb(199,208,179)" stroke="rgb(199,208,179)" stroke-width="1" opacity="1" d="M 525.5 548 L 526 551.5 L 525 551.5 L 525.5 548 Z " /><path fill="rgb(199,208,179)" stroke="rgb(199,208,179)" stroke-width="1" opacity="1" d="M 178.5 552 L 179 560.5 L 178 560.5 L 178.5 552 Z " /><path fill="rgb(199,208,179)" stroke="rgb(199,208,179)" stroke-width="1" opacity="1" d="M 585.5 556 L 586 564.5 L 585 564.5 L 585.5 556 Z " /><path fill="rgb(199,208,179)" stroke="rgb(199,208,179)" stroke-width="1" opacity="1" d="M 233.5 558 L 234 560.5 L 233 560.5 L 233.5 558 Z " /><path fill="rgb(199,208,179)" stroke="rgb(199,208,179)" stroke-width="1" opacity="1" d="M 309.5 559 L 310 561.5 L 309 561.5 L 309.5 559 Z " /><path fill="rgb(199,208,179)" stroke="rgb(199,208,179)" stroke-width="1" opacity="1" d="M 557.5 563 L 558 566.5 L 557 566.5 L 557.5 563 Z " /><path fill="rgb(199,208,179)" stroke="rgb(199,208,179)" stroke-width="1" opacity="1" d="M 179.5 569 L 180 571.5 L 179 571.5 L 179.5 569 Z " /><path fill="rgb(199,208,179)" stroke="rgb(199,208,179)" stroke-width="1" opacity="1" d="M 584.5 572 L 585 575.5 L 584 575.5 L 584.5 572 Z " /><path fill="rgb(199,208,179)" stroke="rgb(199,208,179)" stroke-width="1" opacity="1" d="M 583.5 580 L 584 582.5 L 583 582.5 L 583.5 580 Z " /><path fill="rgb(199,208,179)" stroke="rgb(199,208,179)" stroke-width="1" opacity="1" d="M 582.5 586 L 583 588.5 L 582 588.5 L 582.5 586 Z " /><path fill="rgb(199,208,179)" stroke="rgb(199,208,179)" stroke-width="1" opacity="1" d="M 331.5 650 L 334 650.5 L 331.5 651 L 331.5 650 Z " /><path fill="rgb(199,208,179)" stroke="rgb(199,208,179)" stroke-width="1" opacity="1" d="M 339.5 714 L 342 714.5 L 339.5 715 L 339.5 714 Z " /><path fill="rgb(0,0,0)" stroke="rgb(0,0,0)" stroke-width="1" opacity="0.7058823529411765" d="M 376.5 55 L 381 55.5 L 376.5 56 L 376.5 55 Z " /><path fill="rgb(0,0,0)" stroke="rgb(0,0,0)" stroke-width="1" opacity="0.7058823529411765" d="M 396.5 55 L 404 55.5 L 396.5 56 L 396.5 55 Z " /><path fill="rgb(0,0,0)" stroke="rgb(0,0,0)" stroke-width="1" opacity="0.7058823529411765" d="M 370.5 56 L 373 56.5 L 370.5 57 L 370.5 56 Z " /><path fill="rgb(0,0,0)" stroke="rgb(0,0,0)" stroke-width="1" opacity="0.7058823529411765" d="M 408.5 56 L 412 56.5 L 408.5 57 L 408.5 56 Z " /><path fill="rgb(0,0,0)" stroke="rgb(0,0,0)" stroke-width="1" opacity="0.7058823529411765" d="M 416.5 57 L 419 57.5 L 416.5 58 L 416.5 57 Z " /><path fill="rgb(0,0,0)" stroke="rgb(0,0,0)" stroke-width="1" opacity="0.7058823529411765" d="M 259.5 162 L 260 164.5 L 259 164.5 L 259.5 162 Z " /><path fill="rgb(0,0,0)" stroke="rgb(0,0,0)" stroke-width="1" opacity="0.7058823529411765" d="M 258.5 166 L 259 168.5 L 258 168.5 L 258.5 166 Z " /><path fill="rgb(0,0,0)" stroke="rgb(0,0,0)" stroke-width="1" opacity="0.7058823529411765" d="M 257.5 172 L 258 174.5 L 257 174.5 L 257.5 172 Z " /><path fill="rgb(0,0,0)" stroke="rgb(0,0,0)" stroke-width="1" opacity="0.7058823529411765" d="M 532.5 175 L 533 177.5 L 532 177.5 L 532.5 175 Z " /><path fill="rgb(0,0,0)" stroke="rgb(0,0,0)" stroke-width="1" opacity="0.7058823529411765" d="M 256.5 178 L 257 180.5 L 256 180.5 L 256.5 178 Z " /><path fill="rgb(0,0,0)" stroke="rgb(0,0,0)" stroke-width="1" opacity="0.7058823529411765" d="M 255.5 186 L 256 190.5 L 255 190.5 L 255.5 186 Z " /><path fill="rgb(0,0,0)" stroke="rgb(0,0,0)" stroke-width="1" opacity="0.7058823529411765" d="M 254.5 196 L 255 200.5 L 254 200.5 L 254.5 196 Z " /><path fill="rgb(0,0,0)" stroke="rgb(0,0,0)" stroke-width="1" opacity="0.7058823529411765" d="M 253.5 207 L 254 211.5 L 253 211.5 L 253.5 207 Z " /><path fill="rgb(0,0,0)" stroke="rgb(0,0,0)" stroke-width="1" opacity="0.7058823529411765" d="M 252.5 217 L 253 219.5 L 252 219.5 L 252.5 217 Z " /><path fill="rgb(0,0,0)" stroke="rgb(0,0,0)" stroke-width="1" opacity="0.7058823529411765" d="M 251.5 224 L 252 227.5 L 251 227.5 L 251.5 224 Z " /><path fill="rgb(0,0,0)" stroke="rgb(0,0,0)" stroke-width="1" opacity="0.7058823529411765" d="M 250.5 231 L 251 234.5 L 250 234.5 L 250.5 231 Z " /><path fill="rgb(0,0,0)" stroke="rgb(0,0,0)" stroke-width="1" opacity="0.7058823529411765" d="M 249.5 238 L 250 240.5 L 249 240.5 L 249.5 238 Z " /><path fill="rgb(0,0,0)" stroke="rgb(0,0,0)" stroke-width="1" opacity="0.7058823529411765" d="M 248.5 244 L 249 246.5 L 248 246.5 L 248.5 244 Z " /><path fill="rgb(0,0,0)" stroke="rgb(0,0,0)" stroke-width="1" opacity="0.7058823529411765" d="M 247.5 249 L 248 251.5 L 247 251.5 L 247.5 249 Z " /><path fill="rgb(0,0,0)" stroke="rgb(0,0,0)" stroke-width="1" opacity="0.7058823529411765" d="M 245.5 260 L 246 262.5 L 245 262.5 L 245.5 260 Z " /><path fill="rgb(0,0,0)" stroke="rgb(0,0,0)" stroke-width="1" opacity="0.7058823529411765" d="M 243.5 269 L 244 271.5 L 243 271.5 L 243.5 269 Z " /><path fill="rgb(0,0,0)" stroke="rgb(0,0,0)" stroke-width="1" opacity="0.7058823529411765" d="M 240.5 282 L 241 284.5 L 240 284.5 L 240.5 282 Z " /><path fill="rgb(0,0,0)" stroke="rgb(0,0,0)" stroke-width="1" opacity="0.7058823529411765" d="M 236.5 297 L 237 299.5 L 236 299.5 L 236.5 297 Z " /><path fill="rgb(0,0,0)" stroke="rgb(0,0,0)" stroke-width="1" opacity="0.7058823529411765" d="M 151.5 499 L 152 501.5 L 151 501.5 L 151.5 499 Z " /><path fill="rgb(0,0,0)" stroke="rgb(0,0,0)" stroke-width="1" opacity="0.7058823529411765" d="M 150.5 504 L 151 506.5 L 150 506.5 L 150.5 504 Z " /><path fill="rgb(0,0,0)" stroke="rgb(0,0,0)" stroke-width="1" opacity="0.7058823529411765" d="M 149.5 510 L 150 512.5 L 149 512.5 L 149.5 510 Z " /><path fill="rgb(0,0,0)" stroke="rgb(0,0,0)" stroke-width="1" opacity="0.7058823529411765" d="M 677.5 510 L 678 512.5 L 677 512.5 L 677.5 510 Z " /><path fill="rgb(0,0,0)" stroke="rgb(0,0,0)" stroke-width="1" opacity="0.7058823529411765" d="M 148.5 516 L 149 520.5 L 148 520.5 L 148.5 516 Z " /><path fill="rgb(0,0,0)" stroke="rgb(0,0,0)" stroke-width="1" opacity="0.7058823529411765" d="M 678.5 517 L 679 519.5 L 678 519.5 L 678.5 517 Z " /><path fill="rgb(0,0,0)" stroke="rgb(0,0,0)" stroke-width="1" opacity="0.7058823529411765" d="M 679.5 524 L 680 527.5 L 679 527.5 L 679.5 524 Z " /><path fill="rgb(0,0,0)" stroke="rgb(0,0,0)" stroke-width="1" opacity="0.7058823529411765" d="M 147.5 525 L 148 528.5 L 147 528.5 L 147.5 525 Z " /><path fill="rgb(0,0,0)" stroke="rgb(0,0,0)" stroke-width="1" opacity="0.7058823529411765" d="M 146.5 536 L 147 549.5 L 146 549.5 L 146.5 536 Z " /><path fill="rgb(0,0,0)" stroke="rgb(0,0,0)" stroke-width="1" opacity="0.7058823529411765" d="M 680.5 539 L 681 548.5 L 680 548.5 L 680.5 539 Z " /><path fill="rgb(0,0,0)" stroke="rgb(0,0,0)" stroke-width="1" opacity="0.7058823529411765" d="M 146.5 552 L 147 563.5 L 146 563.5 L 146.5 552 Z " /><path fill="rgb(0,0,0)" stroke="rgb(0,0,0)" stroke-width="1" opacity="0.7058823529411765" d="M 679.5 560 L 680 566.5 L 679 566.5 L 679.5 560 Z " /><path fill="rgb(0,0,0)" stroke="rgb(0,0,0)" stroke-width="1" opacity="0.7058823529411765" d="M 678.5 570 L 679 574.5 L 678 574.5 L 678.5 570 Z " /><path fill="rgb(0,0,0)" stroke="rgb(0,0,0)" stroke-width="1" opacity="0.7058823529411765" d="M 147.5 571 L 148 574.5 L 147 574.5 L 147.5 571 Z " /><path fill="rgb(0,0,0)" stroke="rgb(0,0,0)" stroke-width="1" opacity="0.7058823529411765" d="M 677.5 578 L 678 581.5 L 677 581.5 L 677.5 578 Z " /><path fill="rgb(0,0,0)" stroke="rgb(0,0,0)" stroke-width="1" opacity="0.7058823529411765" d="M 148.5 579 L 149 581.5 L 148 581.5 L 148.5 579 Z " /><path fill="rgb(0,0,0)" stroke="rgb(0,0,0)" stroke-width="1" opacity="0.7058823529411765" d="M 149.5 585 L 150 587.5 L 149 587.5 L 149.5 585 Z " /><path fill="rgb(0,0,0)" stroke="rgb(0,0,0)" stroke-width="1" opacity="0.7058823529411765" d="M 674.5 593 L 675 595.5 L 674 595.5 L 674.5 593 Z " /><path fill="rgb(0,0,0)" stroke="rgb(0,0,0)" stroke-width="1" opacity="0.7058823529411765" d="M 255.5 723 L 261 726.5 L 259.5 726 Q 255.5 725.5 255.5 723 Z " /><path fill="rgb(0,0,0)" stroke="rgb(0,0,0)" stroke-width="1" opacity="0.7058823529411765" d="M 304.5 741 L 307 741.5 L 304.5 742 L 304.5 741 Z " /><path fill="rgb(0,0,0)" stroke="rgb(0,0,0)" stroke-width="1" opacity="0.7058823529411765" d="M 482.5 741 L 485 741.5 L 482.5 742 L 482.5 741 Z " /><path fill="rgb(0,0,0)" stroke="rgb(0,0,0)" stroke-width="1" opacity="0.7058823529411765" d="M 309.5 742 L 312 742.5 L 309.5 743 L 309.5 742 Z " /><path fill="rgb(0,0,0)" stroke="rgb(0,0,0)" stroke-width="1" opacity="0.7058823529411765" d="M 475.5 742 L 479 742.5 L 475.5 743 L 475.5 742 Z " /><path fill="rgb(0,0,0)" stroke="rgb(0,0,0)" stroke-width="1" opacity="0.7058823529411765" d="M 468.5 743 L 471 743.5 L 468.5 744 L 468.5 743 Z " /><path fill="rgb(0,0,0)" stroke="rgb(0,0,0)" stroke-width="1" opacity="0.7058823529411765" d="M 318.5 744 L 323 744.5 L 318.5 745 L 318.5 744 Z " /><path fill="rgb(0,0,0)" stroke="rgb(0,0,0)" stroke-width="1" opacity="0.7058823529411765" d="M 460.5 744 L 464 744.5 L 460.5 745 L 460.5 744 Z " /><path fill="rgb(0,0,0)" stroke="rgb(0,0,0)" stroke-width="1" opacity="0.7058823529411765" d="M 326.5 745 L 331 745.5 L 326.5 746 L 326.5 745 Z " /><path fill="rgb(0,0,0)" stroke="rgb(0,0,0)" stroke-width="1" opacity="0.7058823529411765" d="M 451.5 745 L 455 745.5 L 451.5 746 L 451.5 745 Z " /><path fill="rgb(0,0,0)" stroke="rgb(0,0,0)" stroke-width="1" opacity="0.7058823529411765" d="M 334.5 746 L 339 746.5 L 334.5 747 L 334.5 746 Z " /><path fill="rgb(0,0,0)" stroke="rgb(0,0,0)" stroke-width="1" opacity="0.7058823529411765" d="M 439.5 746 L 445 746.5 L 439.5 747 L 439.5 746 Z " /><path fill="rgb(0,0,0)" stroke="rgb(0,0,0)" stroke-width="1" opacity="0.7058823529411765" d="M 344.5 747 L 352 747.5 L 344.5 748 L 344.5 747 Z " /><path fill="rgb(0,0,0)" stroke="rgb(0,0,0)" stroke-width="1" opacity="0.7058823529411765" d="M 423.5 747 L 431 747.5 L 423.5 748 L 423.5 747 Z " /><path fill="rgb(0,0,0)" stroke="rgb(0,0,0)" stroke-width="1" opacity="0.7058823529411765" d="M 364.5 748 L 410 748.5 L 364.5 749 L 364.5 748 Z " /><path fill="rgb(0,0,0)" stroke="rgb(0,0,0)" stroke-width="1" opacity="1" d="M 381.5 55 L 395.5 55 L 396.5 56 L 415.5 57 Q 435.9 60.6 452.5 68 Q 481.7 80.8 501 103.5 Q 515.3 119.7 524 141.5 L 531 165.5 L 534 188.5 L 541 214.5 Q 560.3 275.2 584 331.5 L 603 367.5 Q 615.5 387 631 403.5 L 642 420.5 L 665 466.5 L 673 490.5 L 678 513.5 L 679 527.5 L 680 528.5 L 680 559.5 L 679 560.5 L 677 584.5 Q 673.5 591.5 673 601.5 L 660 634.5 Q 643.7 664.7 618.5 686 Q 595.7 705.2 566.5 718 L 546.5 726 L 512.5 736 L 481.5 742 L 460.5 744 L 459.5 745 L 451.5 745 L 450.5 746 L 439.5 746 L 438.5 747 L 423.5 747 L 422.5 748 L 352.5 748 L 351.5 747 L 339.5 747 L 338.5 746 L 323.5 745 L 302.5 741 L 261.5 727 L 228.5 708 Q 207.4 693.6 191 674.5 Q 169.4 649.6 157 615.5 L 150 590.5 L 148 571.5 L 147 570.5 L 147 552.5 L 146 550.5 L 147 549.5 L 147 529.5 L 148 528.5 L 148 521.5 L 149 520.5 L 149 513.5 L 152 501.5 L 152 496.5 L 164 455.5 L 177 423.5 L 220 343.5 L 237 299.5 L 246 262.5 L 246 257.5 L 251 234.5 L 258 169.5 L 266 141.5 Q 279 106 305.5 84 L 318.5 75 L 343.5 64 L 367.5 57 L 380.5 56 L 381.5 55 Z M 411 88 L 420 102 L 427 115 L 434 133 L 438 148 L 443 177 L 444 197 L 445 198 L 445 207 L 446 208 L 446 217 L 447 218 L 449 239 L 455 271 L 464 306 L 474 334 L 489 368 Q 503 397 520 424 L 540 466 L 550 496 L 557 533 L 557 572 L 556 573 L 556 581 L 554 588 L 554 593 L 550 610 Q 538 652 512 681 Q 499 696 482 708 L 481 710 L 511 704 L 550 691 L 579 676 L 605 656 L 622 636 Q 631 624 637 609 L 646 578 L 647 564 L 648 563 L 648 546 L 649 545 L 648 542 L 648 527 L 644 505 L 632 470 L 609 428 Q 590 407 575 383 L 555 345 Q 530 285 510 222 L 504 200 L 501 185 L 500 172 L 497 160 Q 489 136 473 120 Q 450 96 411 88 Z M 355 96 L 342 99 L 324 110 Q 305 127 295 154 L 288 181 L 285 218 L 284 219 L 281 247 L 274 282 L 266 313 L 250 354 Q 236 384 218 412 L 199 452 L 187 487 L 181 513 L 179 534 L 178 535 L 178 565 L 179 566 L 179 575 L 184 598 L 188 610 Q 200 639 220 660 Q 243 684 277 699 L 295 706 L 313 711 L 336 715 L 348 715 L 349 716 L 368 716 L 369 715 L 388 714 L 423 705 L 452 691 L 476 673 Q 498 653 511 625 L 519 604 L 523 588 L 524 575 L 525 574 L 525 565 L 526 564 L 526 538 L 525 537 L 524 523 L 514 486 Q 505 461 493 440 Q 474 409 458 376 Q 444 345 433 312 L 424 276 L 418 244 L 417 230 L 415 222 L 415 214 L 414 213 L 412 182 L 407 153 L 399 129 L 387 110 L 374 99 L 364 96 L 355 96 Z " /><path fill="rgb(0,0,0)" stroke="rgb(0,0,0)" stroke-width="1" opacity="1" d="M 331.5 426 L 358.5 426 L 377.5 430 L 388.5 434 Q 414.3 445.2 431 465.5 Q 444.7 481.3 452 503.5 L 457 527.5 L 457 548.5 L 452 572.5 L 444 591.5 Q 433.5 610.5 417.5 624 Q 400.9 638.4 377.5 646 L 358.5 650 L 330.5 650 Q 283.6 641.9 259 611.5 Q 243.7 593.8 236 568.5 L 232 546.5 L 232 528.5 L 237 503.5 L 247 481.5 Q 256.4 465.9 269.5 454 Q 282.9 441.9 300.5 434 L 315.5 429 L 331.5 426 Z M 337 457 L 316 462 L 295 474 Q 278 487 269 508 L 265 521 L 264 537 L 263 538 L 265 556 L 268 566 Q 273 579 281 589 L 302 607 L 316 614 L 337 619 L 353 619 L 368 616 Q 383 611 395 602 Q 407 592 415 579 L 423 560 L 425 551 L 425 541 L 426 540 Q 424 535 425 527 L 421 511 Q 416 497 408 488 Q 395 471 374 462 L 354 457 L 337 457 Z " /><path fill="rgb(254,175,0)" stroke="rgb(254,175,0)" stroke-width="1" opacity="1" d="M 374.5 464 L 377.5 464 L 388.5 470 L 407 486.5 Q 418 499 423 517.5 L 425 528.5 L 425 548.5 L 423 558.5 L 416 576.5 Q 408 591 395.5 601 Q 383.4 610.9 366.5 616 L 349.5 619 L 338.5 619 Q 337.3 616.8 332.5 618 L 329 614.5 Q 317.4 600.1 312 579.5 L 310 569.5 L 309 551.5 L 310 550.5 L 311 535.5 L 316 519.5 Q 324.6 499.1 339.5 485 Q 354 471.5 374.5 464 Z " /><path fill="rgb(235,255,185)" stroke="rgb(235,255,185)" stroke-width="1" opacity="1" d="M 411.5 89 L 414 89.5 L 411.5 90 L 411.5 89 Z " /><path fill="rgb(235,255,185)" stroke="rgb(235,255,185)" stroke-width="1" opacity="1" d="M 365.5 97 Q 380.9 101.6 389 113.5 L 400 133.5 L 407 156.5 L 410 172.5 L 410 179.5 L 411 180.5 L 412 200.5 L 413 201.5 L 413 210.5 L 414 211.5 L 414 220.5 L 417 235.5 L 417 242.5 L 422 265.5 L 422 270.5 L 432 311.5 L 442 340.5 L 456 373.5 Q 472.7 409.3 493 441.5 L 513 485.5 L 523 521.5 L 524 535.5 L 525 536.5 L 525 568.5 L 520 597.5 L 513 618.5 Q 499.3 650.3 475.5 672 Q 448.3 697.3 407.5 709 L 373.5 715 L 342.5 715 L 341.5 714 L 320.5 712 L 304.5 704 Q 278 688.5 258 666.5 Q 237 643.5 225 611.5 L 219 590.5 L 216 573.5 L 215 538.5 L 216 537.5 L 216 526.5 L 217 525.5 L 217 518.5 L 221 496.5 L 235 451.5 L 258 402.5 Q 273.4 378.9 286 352.5 Q 297.2 329.7 305 303.5 L 313 271.5 L 319 239.5 L 326 174.5 L 334 145.5 L 348 118.5 L 366 98.5 L 365.5 97 Z M 333 425 L 313 429 L 302 433 Q 283 441 270 453 Q 252 469 241 492 L 233 517 L 232 534 L 231 535 L 233 561 L 239 581 Q 246 597 257 611 Q 270 626 289 637 L 313 647 L 332 651 L 357 651 L 377 647 Q 402 639 420 623 Q 438 607 449 583 L 456 561 L 457 545 L 458 544 L 458 533 L 457 532 L 456 516 L 452 502 Q 444 479 430 464 Q 413 444 388 433 L 369 427 L 358 426 L 357 425 L 333 425 Z " /><path fill="rgb(235,255,185)" stroke="rgb(235,255,185)" stroke-width="1" opacity="1" d="M 468.5 162 L 469 164.5 L 468 164.5 L 468.5 162 Z " /><path fill="rgb(235,255,185)" stroke="rgb(235,255,185)" stroke-width="1" opacity="1" d="M 469.5 168 L 470 170.5 L 469 170.5 L 469.5 168 Z " /><path fill="rgb(235,255,185)" stroke="rgb(235,255,185)" stroke-width="1" opacity="1" d="M 470.5 176 L 471 178.5 L 470 178.5 L 470.5 176 Z " /><path fill="rgb(235,255,185)" stroke="rgb(235,255,185)" stroke-width="1" opacity="1" d="M 471.5 185 L 472 187.5 L 471 187.5 L 471.5 185 Z " /><path fill="rgb(235,255,185)" stroke="rgb(235,255,185)" stroke-width="1" opacity="1" d="M 472.5 196 L 473 198.5 L 472 198.5 L 472.5 196 Z " /><path fill="rgb(235,255,185)" stroke="rgb(235,255,185)" stroke-width="1" opacity="1" d="M 473.5 206 L 474 209.5 L 473 209.5 L 473.5 206 Z " /><path fill="rgb(235,255,185)" stroke="rgb(235,255,185)" stroke-width="1" opacity="1" d="M 474.5 217 L 475 219.5 L 474 219.5 L 474.5 217 Z " /><path fill="rgb(235,255,185)" stroke="rgb(235,255,185)" stroke-width="1" opacity="1" d="M 475.5 224 L 476 226.5 L 475 226.5 L 475.5 224 Z " /><path fill="rgb(235,255,185)" stroke="rgb(235,255,185)" stroke-width="1" opacity="1" d="M 476.5 231 L 477 233.5 L 476 233.5 L 476.5 231 Z " /><path fill="rgb(235,255,185)" stroke="rgb(235,255,185)" stroke-width="1" opacity="1" d="M 481.5 261 L 482 263.5 L 481 263.5 L 481.5 261 Z " /><path fill="rgb(235,255,185)" stroke="rgb(235,255,185)" stroke-width="1" opacity="1" d="M 583.5 524 L 584 526.5 L 583 526.5 L 583.5 524 Z " /><path fill="rgb(235,255,185)" stroke="rgb(235,255,185)" stroke-width="1" opacity="1" d="M 309.5 546 L 310 548.5 L 309 548.5 L 309.5 546 Z " /><path fill="rgb(235,255,185)" stroke="rgb(235,255,185)" stroke-width="1" opacity="1" d="M 585.5 547 L 586 555.5 L 585 555.5 L 585.5 547 Z " /><path fill="rgb(235,255,185)" stroke="rgb(235,255,185)" stroke-width="1" opacity="1" d="M 178.5 549 L 179 551.5 L 178 551.5 L 178.5 549 Z " /><path fill="rgb(235,255,185)" stroke="rgb(235,255,185)" stroke-width="1" opacity="1" d="M 309.5 562 L 310 564.5 L 309 564.5 L 309.5 562 Z " /></svg>