<?xml version="1.0"?>
<svg width="1024" height="1024" xmlns="http://www.w3.org/2000/svg" xmlns:svg="http://www.w3.org/2000/svg" class="icon" version="1.1">
 <g class="layer">
  <title>Layer 1</title>
  <path d="m662.97,490.12c29.26,-33.91 47.1,-77.95 47.1,-126.16c0,-106.68 -86.81,-193.48 -193.49,-193.48s-193.47,86.8 -193.47,193.48c0,48.21 17.83,92.24 47.09,126.16c-51.37,30.57 -153.31,121.14 -153.31,358.75c0,12.49 10.11,22.62 22.61,22.62s22.61,-10.13 22.61,-22.62c0,-244.45 113.56,-312.78 143.6,-326.58c31.43,22.08 69.62,35.16 110.87,35.16c41.24,0 79.44,-13.08 110.87,-35.16c30.05,13.81 143.61,82.14 143.61,326.58c0,12.49 10.12,22.62 22.62,22.62c12.5,0 22.61,-10.13 22.61,-22.62c0,-237.6 -101.95,-328.17 -153.32,-358.75zm-294.64,-126.16c0,-81.75 66.5,-148.25 148.25,-148.25s148.26,66.5 148.26,148.25s-66.51,148.27 -148.26,148.27s-148.25,-66.52 -148.25,-148.27z" fill="#ffffff" id="svg_2"/>
 </g>
</svg>
